<?xml version="1.0" encoding="iso-8859-1"?>
<!-- Generator: Adobe Illustrator 19.0.0, SVG Export Plug-In . SVG Version: 6.00 Build 0)  -->
<svg version="1.1" id="Layer_1" xmlns="http://www.w3.org/2000/svg" xmlns:xlink="http://www.w3.org/1999/xlink" x="0px" y="0px"
	 viewBox="0 0 512 512" style="enable-background:new 0 0 512 512;" xml:space="preserve">
<g>
	<rect x="264.249" y="187.936" style="fill:#1D1D1B;" width="15.532" height="40.038"/>
	<path style="fill:#1D1D1B;" d="M439.932,380.359V196.185h-88.083v-8.249c0-1.961-0.105-3.897-0.302-5.806L387.2,84.079h-98.929
		v48.597c-27.11,3.793-48.045,27.121-48.045,55.259v8.249H79.834v15.532h160.393v8.491H80.075v160.151H0v47.562h512v-47.562
		L439.932,380.359L439.932,380.359z M351.849,211.717H424.4v168.642h-8.491V220.208h-64.061V211.717z M303.803,99.611h61.221
		l-21.482,59.073c-8.547-13.83-22.958-23.66-39.74-26.008V99.611z M255.758,187.936c0-22.211,18.069-40.279,40.279-40.279
		c22.21,0,40.278,18.069,40.278,40.279v32.272h-32.031v7.766c0,13.379-10.885,24.265-24.264,24.265
		c-13.379,0-24.263-10.886-24.263-24.265V187.936z M95.607,235.74h145.386c3.623,18.238,19.743,32.031,39.03,32.031
		c19.286,0,35.412-13.791,39.035-32.031h25.026h7.766h48.529v35.72l-24.265-12.132l-32.03,16.016l-32.031-16.016l-32.03,16.015
		l-32.03-16.015l-32.031,16.016l-32.031-16.016l-32.029,16.015l-32.031-16.015L95.606,271.46v-35.72H95.607z M95.607,288.826
		l24.265-12.132l32.031,16.016l32.03-16.015l32.031,16.015l32.031-16.016l32.031,16.016l32.03-16.015l32.031,16.015l32.031-16.016
		l24.265,12.132v46.696l-24.265-12.132l-32.034,16.015l-32.031-16.016l-32.03,16.015l-32.03-16.015l-32.031,16.016l-32.031-16.016
		l-32.029,16.015l-32.031-16.015l-24.265,12.132v-46.695H95.607z M95.607,352.886l24.265-12.132l32.031,16.016l32.03-16.015
		l32.031,16.015l32.031-16.016l32.031,16.016l32.03-16.015l32.031,16.015l32.031-16.016l24.265,12.132v27.473h-0.241H95.607V352.886
		z M496.468,412.389H15.532v-16.498h64.543h7.766h312.295h15.773h80.559L496.468,412.389L496.468,412.389z"/>
</g>
<g>
</g>
<g>
</g>
<g>
</g>
<g>
</g>
<g>
</g>
<g>
</g>
<g>
</g>
<g>
</g>
<g>
</g>
<g>
</g>
<g>
</g>
<g>
</g>
<g>
</g>
<g>
</g>
<g>
</g>
</svg>
