<svg width="50" height="50" viewBox="0 0 50 50" fill="none" xmlns="http://www.w3.org/2000/svg">
    <path d="M30.3853 25.1563C30.9224 24.2742 31.4775 23.3622 32.0259 22.4219C33.8612 19.2756 34.198 16.1054 33.0272 12.9991C30.6648 6.73174 22.7678 2.91309 20.9396 2.30381L19.654 1.875L17.6476 5.88867L18.6158 6.67969C18.6267 6.68838 19.7021 7.62813 19.7738 9.05273C19.8351 10.2688 19.1684 11.583 17.7928 12.959C16.8375 13.9142 15.7891 14.8378 14.679 15.8155C10.0085 19.9286 4.71484 24.5918 4.71484 33.4135C4.71484 33.5346 4.71598 33.6551 4.71826 33.7748C4.75211 35.7215 5.17021 37.6423 5.94856 39.427C6.72691 41.2116 7.85016 42.8249 9.25381 44.1742C12.0724 46.9157 15.8516 48.4458 19.7835 48.4375H28.7776L27.6674 46.1844C23.1563 37.029 26.3465 31.7896 30.3853 25.1563ZM19.7835 45.3125C13.3187 45.3125 7.96221 40.1106 7.84268 33.7169C7.84085 33.6162 7.83991 33.5151 7.83984 33.4135C7.83984 26.0035 12.3668 22.0157 16.7447 18.1596C17.8423 17.1928 18.9773 16.193 20.0024 15.1677C22.0292 13.141 23.0023 11.0305 22.8949 8.89502C22.848 7.99004 22.6078 7.10562 22.1904 6.30127C24.9092 7.78672 28.7845 10.6033 30.1032 14.1018C30.9376 16.3151 30.6836 18.5217 29.3268 20.8478C28.7931 21.7627 28.2455 22.6618 27.7161 23.5314C23.841 29.8956 20.165 35.9319 23.8634 45.3125H19.7835Z" fill="black"/>
    <path d="M45.7269 33.3134C45.7008 33.2101 45.6737 33.1065 45.6454 33.0024C44.5179 28.8684 38.2766 23.5529 37.5687 22.9605L36.1471 21.7708L35.2149 23.3732C33.0905 27.0255 31.2675 30.3568 30.4728 34.136C29.5666 38.446 30.1766 42.8264 32.338 47.5276L32.7561 48.4375H33.8184C35.6894 48.4429 37.5368 48.0187 39.218 47.1975C40.8993 46.3763 42.3696 45.1802 43.5156 43.7012C44.6547 42.2544 45.4464 40.5655 45.8298 38.7645C46.2131 36.9636 46.1779 35.0986 45.7269 33.3134V33.3134ZM41.0511 41.7785C40.2937 42.7563 39.3452 43.5697 38.2633 44.1691C37.1814 44.7685 35.9888 45.1413 34.7581 45.2649C31.6779 37.8527 33.4953 32.8005 36.9681 26.6014C39.2769 28.7492 42.0906 31.8445 42.6305 33.8241C42.6532 33.9077 42.675 33.9908 42.6958 34.0735C43.0297 35.3981 43.055 36.7815 42.7699 38.1174C42.4847 39.4532 41.8967 40.7058 41.0511 41.7785V41.7785Z" fill="black"/>
</svg>
