<svg width="49" height="49" viewBox="0 0 49 49" fill="none" xmlns="http://www.w3.org/2000/svg">
    <path d="M47.4994 6.16639C40.5122 2.13231 32.5782 0 24.5553 0C16.4834 0 8.51987 2.12989 1.52561 6.15934L0.192261 6.93605L0.982963 8.24341L24.5138 49L48.8076 6.92175L47.4994 6.16639ZM18.4503 32.4551L15.9384 28.1043C16.4038 27.6884 17.0125 27.4469 17.652 27.4469C19.068 27.4469 20.2199 28.5988 20.2199 30.0149C20.2199 31.152 19.4765 32.1184 18.4503 32.4551ZM19.9753 35.0964C21.9004 34.2126 23.2413 32.2679 23.2413 30.0148C23.2413 26.9327 20.7339 24.4254 17.652 24.4254C16.4754 24.4254 15.346 24.8 14.4133 25.4625L7.38201 13.2841C12.6442 10.5373 18.5344 9.09071 24.514 9.09071C30.4973 9.09071 36.3864 10.539 41.6426 13.2892L24.5138 42.9572L19.9753 35.0964ZM43.1546 10.6704C37.4391 7.65675 31.0272 6.06931 24.5141 6.06931C18.0047 6.06931 11.5918 7.65494 5.87009 10.6652L4.35757 8.04551C10.5663 4.75439 17.5167 3.02141 24.5553 3.02141C31.5473 3.02141 38.4685 4.7562 44.6671 8.05064L43.1546 10.6704Z" fill="black"/>
    <path d="M29.5483 12.1403C26.4662 12.1403 23.9589 14.6477 23.9589 17.7297C23.9589 20.8118 26.4662 23.3191 29.5483 23.3191C32.6303 23.3191 35.1377 20.8118 35.1377 17.7297C35.1377 14.6477 32.6302 12.1403 29.5483 12.1403ZM29.5483 20.2977C28.1322 20.2977 26.9803 19.1458 26.9803 17.7297C26.9803 16.3137 28.1322 15.1617 29.5483 15.1617C30.9643 15.1617 32.1163 16.3137 32.1163 17.7297C32.1163 19.1458 30.9642 20.2977 29.5483 20.2977Z" fill="black"/>
    <path d="M18.3277 13.8088H15.3062V17.8374H18.3277V13.8088Z" fill="black"/>
    <path d="M29.1896 25.532H26.1682V29.5606H29.1896V25.532Z" fill="black"/>
</svg>
