<svg width="50" height="49" viewBox="0 0 50 49" fill="none" xmlns="http://www.w3.org/2000/svg">
    <path d="M13.5 26.9495C16.73 26.9495 20 25.7475 20 23.4495C20 21.1515 16.73 19.9495 13.5 19.9495C10.27 19.9495 7 21.1515 7 23.4495C7 25.7475 10.27 26.9495 13.5 26.9495ZM13.5 21.9495C16.423 21.9495 18 23.0135 18 23.4495C18 23.8855 16.423 24.9495 13.5 24.9495C10.577 24.9495 9 23.8855 9 23.4495C9 23.0135 10.577 21.9495 13.5 21.9495Z" fill="black"/>
    <path d="M6 36.9495C5.448 36.9495 5 37.3965 5 37.9495V43.9495C5 44.5025 5.448 44.9495 6 44.9495C6.552 44.9495 7 44.5025 7 43.9495V37.9495C7 37.3965 6.552 36.9495 6 36.9495Z" fill="black"/>
    <path d="M6 30.9495C5.448 30.9495 5 31.3965 5 31.9495V34.9465C5 35.4995 5.448 35.9465 6 35.9465C6.552 35.9465 7 35.4995 7 34.9465V31.9495C7 31.3965 6.552 30.9495 6 30.9495Z" fill="black"/>
    <path d="M31 36.9495C30.448 36.9495 30 37.3965 30 37.9495V43.9495C30 44.5025 30.448 44.9495 31 44.9495C31.552 44.9495 32 44.5025 32 43.9495V37.9495C32 37.3965 31.552 36.9495 31 36.9495Z" fill="black"/>
    <path d="M31 30.9495C30.448 30.9495 30 31.3965 30 31.9495V34.9465C30 35.4995 30.448 35.9465 31 35.9465C31.552 35.9465 32 35.4995 32 34.9465V31.9495C32 31.3965 31.552 30.9495 31 30.9495Z" fill="black"/>
    <path d="M25.5 10.9495C28.73 10.9495 32 9.74746 32 7.44946C32 5.15146 28.73 3.94946 25.5 3.94946C22.27 3.94946 19 5.15146 19 7.44946C19 9.74746 22.27 10.9495 25.5 10.9495ZM25.5 5.94946C28.423 5.94946 30 7.01346 30 7.44946C30 7.88546 28.423 8.94946 25.5 8.94946C22.577 8.94946 21 7.88546 21 7.44946C21 7.01346 22.577 5.94946 25.5 5.94946Z" fill="black"/>
    <path d="M36.5 26.9495C39.73 26.9495 43 25.7475 43 23.4495C43 21.1515 39.73 19.9495 36.5 19.9495C33.27 19.9495 30 21.1515 30 23.4495C30 25.7475 33.27 26.9495 36.5 26.9495ZM36.5 21.9495C39.423 21.9495 41 23.0135 41 23.4495C41 23.8855 39.423 24.9495 36.5 24.9495C33.577 24.9495 32 23.8855 32 23.4495C32 23.0135 33.577 21.9495 36.5 21.9495Z" fill="black"/>
    <path d="M49.986 25.8625C50.016 25.3245 49.952 24.7795 49.78 24.2555C48.332 19.8175 44.493 16.9495 40 16.9495H39V10.1485L38.986 9.86246C39.016 9.32446 38.952 8.77946 38.78 8.25546C37.574 4.55846 35.979 0.949463 31 0.949463H20C15.021 0.949463 13.426 4.55846 12.219 8.25546C12.102 8.61246 12.037 8.97946 12.015 9.34746L12 9.35046V16.9495H8C3.021 16.9495 1.426 20.5585 0.219 24.2555C0.102 24.6125 0.037 24.9795 0.015 25.3475L0 25.3505V42.7055C0 46.1485 2.801 48.9495 6.244 48.9495H20.757C22.401 48.9495 23.894 48.3055 25.01 47.2635C26.156 48.3295 27.665 48.9495 29.244 48.9495H43.757C47.199 48.9495 50 46.1485 50 42.7055V26.1485L49.986 25.8625ZM40 18.9495C43.611 18.9495 46.705 21.2755 47.879 24.8765C47.992 25.2215 48.018 25.5745 47.975 25.9175L47.969 25.9565C47.958 26.0345 47.935 26.1115 47.916 26.1885C47.9 26.2545 47.883 26.3205 47.861 26.3845C47.833 26.4675 47.8 26.5495 47.762 26.6295C47.719 26.7205 47.668 26.8085 47.613 26.8955C47.576 26.9545 47.539 27.0125 47.497 27.0685C47.411 27.1805 47.317 27.2845 47.215 27.3755C47.185 27.4035 47.152 27.4275 47.12 27.4535C47.019 27.5355 46.912 27.6085 46.8 27.6705C46.77 27.6875 46.74 27.7045 46.709 27.7195C46.585 27.7805 46.454 27.8285 46.32 27.8645C46.293 27.8715 46.268 27.8825 46.241 27.8895C46.079 27.9275 45.91 27.9495 45.737 27.9495H27.263C27.175 27.9495 27.087 27.9325 27 27.9215V26.1485L26.986 25.8625C26.998 25.6435 26.994 25.4235 26.974 25.2045C26.97 25.1635 26.962 25.1225 26.957 25.0815C26.923 24.8035 26.869 24.5265 26.781 24.2555C26.567 23.5985 26.338 22.9445 26.082 22.3135C26.107 22.2455 26.123 22.1825 26.145 22.1155C26.175 22.0245 26.204 21.9355 26.23 21.8465C26.272 21.7035 26.308 21.5655 26.34 21.4295C26.358 21.3535 26.377 21.2775 26.392 21.2035C26.423 21.0555 26.448 20.9155 26.47 20.7785C26.478 20.7265 26.489 20.6735 26.497 20.6235C26.524 20.4455 26.546 20.2775 26.566 20.1235C26.717 18.9495 26.717 18.9495 28 18.9495H39H40ZM14.121 8.87646C15.403 4.94546 16.665 2.94946 20 2.94946H31C34.335 2.94946 35.597 4.94546 36.879 8.87646C36.992 9.22146 37.018 9.57446 36.975 9.91846L36.969 9.95746C36.958 10.0345 36.936 10.1105 36.917 10.1875C36.9 10.2545 36.884 10.3215 36.861 10.3865C36.833 10.4685 36.8 10.5495 36.763 10.6295C36.719 10.7215 36.669 10.8105 36.613 10.8975C36.576 10.9565 36.54 11.0145 36.498 11.0695C36.412 11.1815 36.318 11.2855 36.216 11.3765C36.186 11.4045 36.153 11.4285 36.121 11.4545C36.02 11.5365 35.913 11.6095 35.801 11.6715C35.771 11.6885 35.741 11.7055 35.71 11.7205C35.586 11.7815 35.455 11.8295 35.321 11.8655C35.294 11.8725 35.269 11.8835 35.242 11.8905C35.079 11.9275 34.91 11.9495 34.737 11.9495H16.263C16.09 11.9495 15.921 11.9275 15.757 11.8895C15.729 11.8835 15.705 11.8725 15.678 11.8645C15.544 11.8275 15.414 11.7805 15.289 11.7195C15.258 11.7045 15.228 11.6875 15.198 11.6705C15.086 11.6085 14.979 11.5355 14.878 11.4535C14.846 11.4275 14.813 11.4025 14.783 11.3755C14.681 11.2835 14.588 11.1795 14.501 11.0685C14.459 11.0135 14.423 10.9555 14.386 10.8965C14.33 10.8095 14.279 10.7205 14.236 10.6285C14.199 10.5485 14.166 10.4675 14.138 10.3855C14.115 10.3195 14.099 10.2535 14.082 10.1865C14.063 10.1105 14.041 10.0335 14.03 9.95646L14.024 9.91746C13.982 9.57446 14.008 9.22046 14.121 8.87646ZM14 13.2965C14.052 13.3295 14.11 13.3545 14.164 13.3855C14.25 13.4355 14.337 13.4835 14.426 13.5275C14.497 13.5615 14.569 13.5925 14.641 13.6225C14.741 13.6645 14.843 13.7015 14.946 13.7355C15.015 13.7585 15.084 13.7805 15.155 13.7995C15.273 13.8315 15.394 13.8565 15.515 13.8775C15.576 13.8885 15.635 13.9015 15.697 13.9105C15.883 13.9345 16.071 13.9505 16.262 13.9505H34.736C34.927 13.9505 35.115 13.9345 35.301 13.9105C35.363 13.9025 35.422 13.8885 35.483 13.8775C35.605 13.8565 35.725 13.8315 35.843 13.7995C35.914 13.7805 35.983 13.7585 36.052 13.7355C36.156 13.7015 36.257 13.6635 36.357 13.6225C36.43 13.5925 36.502 13.5615 36.572 13.5275C36.661 13.4845 36.748 13.4355 36.834 13.3855C36.888 13.3545 36.946 13.3295 36.998 13.2965V16.9495H27.998C27.655 16.9495 27.351 16.9705 27.075 17.0075C26.982 17.0205 26.911 17.0445 26.825 17.0605C26.656 17.0935 26.485 17.1245 26.342 17.1715C26.256 17.1995 26.188 17.2385 26.111 17.2725C25.994 17.3225 25.874 17.3705 25.775 17.4315C25.705 17.4745 25.65 17.5265 25.588 17.5745C25.505 17.6385 25.42 17.7025 25.351 17.7755C25.298 17.8315 25.255 17.8945 25.21 17.9545C25.152 18.0315 25.093 18.1075 25.045 18.1915C25.007 18.2595 24.975 18.3315 24.943 18.4025C24.904 18.4895 24.864 18.5765 24.833 18.6695C24.807 18.7465 24.784 18.8275 24.763 18.9075C24.737 19.0035 24.711 19.0995 24.691 19.1995C24.673 19.2855 24.657 19.3735 24.643 19.4625C24.635 19.5135 24.623 19.5605 24.615 19.6125C24.475 19.4265 24.328 19.2485 24.173 19.0775C24.169 19.0735 24.166 19.0695 24.162 19.0665C24.007 18.8955 23.843 18.7335 23.671 18.5795C23.665 18.5735 23.658 18.5685 23.651 18.5625C23.478 18.4095 23.296 18.2655 23.105 18.1305C23.094 18.1225 23.083 18.1155 23.071 18.1075C22.882 17.9765 22.683 17.8555 22.475 17.7445C22.455 17.7335 22.434 17.7225 22.414 17.7125C22.212 17.6085 22.001 17.5135 21.78 17.4295C21.745 17.4165 21.711 17.4025 21.675 17.3885C21.465 17.3125 21.244 17.2465 21.015 17.1895C20.962 17.1765 20.911 17.1605 20.857 17.1475C20.634 17.0975 20.399 17.0595 20.158 17.0285C20.092 17.0195 20.03 17.0075 19.963 16.9995C19.657 16.9695 19.338 16.9495 19 16.9495H14V13.2965ZM2.121 24.8765C3.403 20.9455 4.665 18.9495 8 18.9495H12H19C19.38 18.9495 19.726 18.9825 20.055 19.0345C20.139 19.0475 20.219 19.0665 20.3 19.0835C20.548 19.1345 20.783 19.2005 21.004 19.2825C21.077 19.3095 21.153 19.3345 21.224 19.3655C21.46 19.4675 21.679 19.5915 21.888 19.7325C21.927 19.7595 21.97 19.7775 22.008 19.8055C22.237 19.9715 22.447 20.1675 22.647 20.3815C22.74 20.4825 22.827 20.6015 22.917 20.7135C23.02 20.8425 23.122 20.9735 23.219 21.1165C23.316 21.2605 23.409 21.4165 23.501 21.5765C23.584 21.7205 23.665 21.8685 23.744 22.0235C23.832 22.1955 23.919 22.3725 24.004 22.5615C24.092 22.7575 24.178 22.9635 24.263 23.1765C24.324 23.3285 24.386 23.4735 24.447 23.6375C24.593 24.0295 24.737 24.4365 24.881 24.8765C24.948 25.0805 24.982 25.2885 24.992 25.4965C24.994 25.5335 24.988 25.5705 24.988 25.6075C24.988 25.7745 24.973 25.9405 24.938 26.1035C24.932 26.1315 24.926 26.1595 24.919 26.1865C24.917 26.1965 24.913 26.2055 24.911 26.2155C24.863 26.3935 24.797 26.5675 24.707 26.7325C24.697 26.7505 24.687 26.7685 24.677 26.7865C24.573 26.9665 24.448 27.1365 24.296 27.2885L24.158 27.4265C24.147 27.4365 24.135 27.4455 24.124 27.4545C24.023 27.5365 23.916 27.6095 23.804 27.6715C23.774 27.6885 23.744 27.7055 23.713 27.7205C23.589 27.7815 23.458 27.8295 23.324 27.8655C23.297 27.8725 23.272 27.8835 23.245 27.8905C23.079 27.9275 22.91 27.9495 22.737 27.9495H4.263C4.09 27.9495 3.921 27.9275 3.757 27.8895C3.729 27.8835 3.705 27.8725 3.678 27.8645C3.544 27.8275 3.414 27.7805 3.289 27.7195C3.258 27.7045 3.228 27.6875 3.198 27.6705C3.086 27.6085 2.979 27.5355 2.878 27.4535C2.846 27.4275 2.813 27.4025 2.783 27.3755C2.681 27.2835 2.588 27.1795 2.501 27.0685C2.459 27.0135 2.423 26.9555 2.386 26.8965C2.33 26.8095 2.279 26.7205 2.236 26.6285C2.199 26.5485 2.166 26.4675 2.138 26.3855C2.115 26.3195 2.099 26.2535 2.082 26.1865C2.063 26.1105 2.041 26.0335 2.03 25.9565L2.024 25.9175C1.982 25.5745 2.008 25.2205 2.121 24.8765ZM20.756 46.9495H6.244C3.904 46.9495 2 45.0465 2 42.7065V29.2965C2.052 29.3295 2.11 29.3545 2.164 29.3855C2.25 29.4355 2.337 29.4835 2.426 29.5275C2.497 29.5615 2.569 29.5925 2.641 29.6225C2.741 29.6645 2.843 29.7015 2.946 29.7355C3.015 29.7585 3.084 29.7805 3.155 29.7995C3.273 29.8315 3.394 29.8565 3.515 29.8775C3.576 29.8885 3.635 29.9015 3.697 29.9105C3.884 29.9335 4.072 29.9495 4.263 29.9495H22.737C22.928 29.9495 23.116 29.9335 23.302 29.9095C23.364 29.9015 23.423 29.8875 23.484 29.8765C23.606 29.8555 23.726 29.8305 23.844 29.7985C23.915 29.7795 23.984 29.7575 24.053 29.7345C24.157 29.7005 24.258 29.6625 24.358 29.6215C24.431 29.5915 24.503 29.5605 24.573 29.5265C24.662 29.4835 24.749 29.4345 24.835 29.3845C24.889 29.3535 24.947 29.3285 24.999 29.2955V42.7045V42.7085C24.999 42.9665 24.967 43.2155 24.923 43.4605C24.904 43.5625 24.876 43.6625 24.85 43.7625C24.816 43.8945 24.776 44.0225 24.73 44.1495C24.682 44.2775 24.632 44.4045 24.572 44.5285C24.536 44.6035 24.494 44.6745 24.453 44.7465C24.371 44.8925 24.289 45.0385 24.189 45.1775L24.179 45.1915C23.407 46.2515 22.165 46.9495 20.756 46.9495ZM48 42.7055C48 45.0455 46.096 46.9495 43.756 46.9495H29.244C28.098 46.9495 27.034 46.4965 26.241 45.6875C26.476 45.2565 26.656 44.7915 26.785 44.3075C26.797 44.2635 26.808 44.2185 26.819 44.1745C26.865 43.9865 26.901 43.7945 26.929 43.6005C26.937 43.5445 26.948 43.4895 26.955 43.4335C26.982 43.1935 27 42.9525 27 42.7065V42.7055V29.9405C27.087 29.9465 27.175 29.9495 27.263 29.9495H45.737C45.928 29.9495 46.116 29.9335 46.302 29.9095C46.364 29.9015 46.423 29.8875 46.484 29.8765C46.606 29.8555 46.726 29.8305 46.844 29.7985C46.915 29.7795 46.984 29.7575 47.053 29.7345C47.157 29.7005 47.258 29.6625 47.358 29.6215C47.431 29.5915 47.503 29.5605 47.573 29.5265C47.662 29.4835 47.749 29.4345 47.835 29.3845C47.889 29.3535 47.947 29.3285 47.999 29.2955V42.7055H48Z" fill="black"/>
</svg>
